<?xml version="1.0" encoding="UTF-8" standalone="no"?>
<!-- Generator: Adobe Illustrator 19.0.0, SVG Export Plug-In . SVG Version: 6.00 Build 0)  -->

<svg
   version="1.1"
   id="Layer_2"
   x="0px"
   y="0px"
   viewBox="-2017 853 48 48"
   xml:space="preserve"
   width="48"
   height="48"
   xmlns="http://www.w3.org/2000/svg"
   xmlns:svg="http://www.w3.org/2000/svg"><defs
   id="defs9" />
<style
   type="text/css"
   id="style2">
	.st0{fill:#FFFFFF;}
</style>
<rect
   style="color:#000000;overflow:visible;fill:#333333;stroke-width:1;stroke-linejoin:round"
   id="rect221"
   width="47.972656"
   height="48"
   x="-2016.9727"
   y="853"
   rx="4"
   ry="4" /><path
   class="st0"
   d="m -2003.2,866.44986 0.7,3 c -3.5,0 -12,0 -12,0 0,0 0.2,0.9 0.3,1 0.3,0.5 0.6,1.1 1,1.5 1.9,2.2 5.2,3.1 7.9,3.6 1.9,0.4 3.8,0.5 5.7,0.6 l 2.2,5.9 h 1.2 l 0.7,1.9 h -1 l -1.7,5.5 h 16.7 l -1.7,-5.5 h -1 l 0.7,-1.9 h 1.2 c 0,0 1,-6.1 4.1,-8.9 3,-2.8 6.7,-3.2 6.7,-3.2 v -3.5 z m 16.8,15.1 c -0.8,0.5 -1.7,0.5 -2.3,0.9 -0.4,0.2 -0.6,0.8 -0.6,0.8 -0.4,-0.9 -0.9,-1.2 -1.5,-1.4 -0.6,-0.2 -1.7,-0.1 -3.2,-1.4 -1,-0.9 -1.1,-2.1 -1,-2.7 v -0.1 c 0,-0.1 0,-0.1 0,-0.2 0,-0.1 0,-0.2 0.1,-0.3 v 0 0 c 0.2,-0.6 0.7,-1.2 1.7,-1.6 0,0 -0.7,1 0,2 0.4,0.6 1.2,0.9 1.9,0.5 0.3,-0.2 0.5,-0.6 0.6,-0.9 0.2,-0.7 0.2,-1.4 -0.4,-1.9 -0.9,-0.8 -1.1,-1.9 -0.5,-2.6 0,0 0.2,0.9 1.1,0.8 0.6,0 0.6,-0.2 0.4,-0.4 -0.1,-0.3 -1.4,-2.2 0.5,-3.6 0,0 1.2,-0.8 2.6,-0.7 -0.8,0.1 -1.7,0.6 -2,1.4 0,0 0,0 0,0.1 -0.3,0.8 -0.1,1.7 0.5,2.5 0.4,0.6 0.9,1.1 1.1,1.9 -0.3,-0.1 -0.5,0 -0.7,0.2 -0.2,0.2 -0.3,0.6 -0.2,0.9 0.1,0.2 0.3,0.4 0.5,0.4 0.1,0 0.1,0 0.2,0 h 0.1 c 0.3,-0.1 0.5,-0.5 0.4,-0.8 0.2,0.2 0.3,0.7 0.2,1 0,0.3 -0.2,0.6 -0.3,0.8 -0.1,0.2 -0.3,0.4 -0.4,0.6 -0.1,0.2 -0.2,0.4 -0.2,0.6 0,0.2 0,0.5 0.1,0.7 0.4,0.6 1.2,0 1.4,-0.5 0.3,-0.6 0.2,-1.3 -0.2,-1.9 0,0 0.7,0.4 1.2,1.8 0.4,1.2 -0.3,2.6 -1.1,3.1 z"
   id="path4" />
</svg>
